<svg width="80" height="80" viewBox="0 0 80 80" fill="none" xmlns="http://www.w3.org/2000/svg">
<path d="M55 20.1705C57.2063 21.4193 59.7679 22.134 62.5 22.134C63.0063 22.134 63.5066 22.1094 64 22.0615M55 20.1705C52.7937 21.4193 50.2322 22.134 47.5 22.134C44.7678 22.134 42.2063 21.4193 40 20.1705M55 20.1705L52 10M40 20.1705C37.7937 21.4193 35.2321 22.134 32.5 22.134C29.7678 22.134 27.2063 21.4193 25 20.1705M40 20.1705V10M25 20.1705C22.7937 21.4193 20.2321 22.134 17.5 22.134C16.9937 22.134 16.4934 22.1094 16 22.0615M25 20.1705L28 10M28 10H16L10 20.1705C11.7975 21.1879 13.8308 21.8508 16 22.0615M28 10H40M40 10H52M52 10H64L70 20.1705C68.2025 21.1879 66.1692 21.8508 64 22.0615M16 22.0615V65.1078C16 67.8097 18.2386 70 21 70H59C61.7614 70 64 67.8097 64 65.1078V22.0615M40 34.7441V60M40 60C40 60 44.5307 58.75 47.5 58.75C50.4693 58.75 56.8603 60 56.8603 60V35C56.8603 35 52.502 34.0698 50 33.7225M40 60C40 60 35.4693 58.75 32.5 58.75C29.5307 58.75 23.1427 60 23.1427 60V35C23.1427 35 27.498 34.0698 30 33.7225M40 30V52.5M40 30C40 30 36.9796 28.75 35 28.75C33.0204 28.75 30 30 30 30V33.7225M40 30C40 30 43.0204 28.75 45 28.75C46.9796 28.75 50 30 50 30V33.7225M40 52.5C40 52.5 43.0204 51.25 45 51.25C46.9796 51.25 50 52.5 50 52.5V33.7225M40 52.5C40 52.5 36.9796 51.25 35 51.25C33.0204 51.25 30 52.5 30 52.5V33.7225" stroke="#06D6A0" stroke-width="3.75" stroke-linecap="round" stroke-linejoin="round"/>
</svg>
