<svg width="80" height="80" viewBox="0 0 80 80" fill="none" xmlns="http://www.w3.org/2000/svg">
<path d="M24.6792 59.8193H24.8095M32.3095 59.8193H32.4398M47.5658 59.8193H47.6945M55.194 59.8193H55.3227M39.9401 59.8193H40.0659M17.8932 59.8193H18.4146M61.6312 59.8193H62.1526M27.745 54.0312H27.8753M33.875 54.0312H34.0054M46.1309 54.0312H46.2596M52.2588 54.0312H52.3875M40.0054 54.0312H40.1312M21.2237 54.0312H21.7451M58.3868 54.0312H58.9082M13.3811 40L17.136 28.3238H25.4604M13.3811 40H66.2897M13.3811 40L14.2643 48.8665M66.2897 40L62.1526 28.3238H52.3013M66.2897 40L65.7362 48.8665M65.7362 48.8665C66.1326 49.4643 66.4353 50.141 66.6194 50.8764L69.7983 65.2142C70.806 69.2384 67.9102 69.9999 63.9412 69.9999H16.0588C12.0898 69.9999 9.19396 69.2384 10.2017 65.2142L13.3811 50.8764C13.5652 50.141 13.8679 49.4643 14.2643 48.8665M65.7362 48.8665L14.2643 48.8665M23.6252 35H25.4604M55.4167 35H52.3013M21.0526 65.2142H57.3684M57.8004 10H30.9596C27.899 10 25.418 12.072 25.418 14.628L25.4604 28.3238M57.8004 10C54.7399 10 52.2588 13.7572 52.2588 16.3132M57.8004 10C59.8586 10 62.1101 12.5419 62.1101 16.3132H52.2588M52.2588 16.3132L52.3013 28.3238M52.3013 35H25.4604M52.3013 35V28.3238M25.4604 35V28.3238" stroke="#06D6A0" stroke-width="3.75" stroke-linecap="round" stroke-linejoin="round"/>
</svg>
