<svg width="80" height="80" viewBox="0 0 80 80" fill="none" xmlns="http://www.w3.org/2000/svg">
<path d="M28.9474 60.5263V63.6842C28.9474 67.1723 31.775 70 35.2632 70H63.6842C67.1723 70 70 67.1723 70 63.6842V25.7895C70 22.3014 67.1723 19.4737 63.6842 19.4737H57.3684H51.0526M28.9474 60.5263H16.3158C12.8277 60.5263 10 57.6986 10 54.2105V16.3158C10 12.8277 12.8277 10 16.3158 10H44.7368C48.225 10 51.0526 12.8277 51.0526 16.3158V19.4737M28.9474 60.5263V47.8947M36.8421 31.6554H55.7895M36.8421 38.4211H46.3158M36.8421 52.6316H62.1053M36.8421 60.5263H62.1053M28.9474 28.9474V25.7895C28.9474 24.2139 29.5243 22.773 30.4785 21.6667M28.9474 28.9474V47.8947M28.9474 28.9474H17.8947M28.9474 47.8947H17.8947M17.8947 21.6667H30.4785M30.4785 21.6667C31.6367 20.3238 33.3507 19.4737 35.2632 19.4737H51.0526" stroke="#06D6A0" stroke-width="3.75" stroke-linecap="round" stroke-linejoin="round"/>
</svg>
