<svg width="30" height="30" viewBox="0 0 30 30" fill="none" xmlns="http://www.w3.org/2000/svg">
<path d="M15 0C6.75 0 0 6.75 0 15C0 23.25 6.75 30 15 30C23.25 30 30 23.25 30 15C30 6.75 23.25 0 15 0ZM20.55 16.05L16.05 20.55C15.45 21.15 14.55 21.15 13.95 20.55C13.35 19.95 13.35 19.05 13.95 18.45L15.9 16.5H10.5C9.6 16.5 9 15.9 9 15C9 14.1 9.6 13.5 10.5 13.5H15.9L13.95 11.55C13.35 10.95 13.35 10.05 13.95 9.45C14.55 8.85 15.45 8.85 16.05 9.45L20.55 13.95C21.15 14.55 21.15 15.45 20.55 16.05Z" fill="#333333"/>
</svg>
